<?xml version="1.0" encoding="UTF-8"?>
<svg id="_레이어_1" data-name="레이어 1" xmlns="http://www.w3.org/2000/svg" viewBox="0 0 118.61 135.29">
  <defs>
    <style>
      .cls-1 {
        fill: #fefefe;
      }

      .cls-1, .cls-2, .cls-3, .cls-4, .cls-5, .cls-6, .cls-7, .cls-8, .cls-9, .cls-10 {
        stroke-width: 0px;
      }

      .cls-2 {
        fill: #29a7df;
      }

      .cls-3 {
        fill: #2aa8df;
      }

      .cls-4 {
        fill: #e9eaea;
      }

      .cls-5 {
        fill: #229fda;
      }

      .cls-6 {
        fill: #1d97d5;
      }

      .cls-7 {
        fill: #1e98d6;
      }

      .cls-8 {
        fill: #1f9ad7;
      }

      .cls-9 {
        fill: #0070b9;
      }

      .cls-10 {
        fill: #eaeaea;
      }
    </style>
  </defs>
  <path class="cls-9" d="m59.4.08c18.15,0,36.3.06,54.45-.05,3.48-.02,5.15.1,4.69,4.69-2.63,26.28-4.82,52.59-7.15,78.9-1.03,11.59-2.16,23.17-2.96,34.77-.19,2.77-.99,4.09-3.68,4.81-14.07,3.8-28.1,7.74-42.14,11.65-2.3.64-4.49.58-6.83-.08-13.71-3.91-27.43-7.8-41.22-11.42-3.14-.82-4.17-2.26-4.44-5.34C7.25,85.07,4.24,52.15,1.29,19.23.85,14.27.71,9.27.09,4.34-.38.65,1.06-.03,4.45,0c18.32.16,36.63.07,54.95.07Z"/>
  <path class="cls-2" d="m22.29,25.3c1.28-1.61,3.08-.94,4.65-.95,9.32-.06,18.65-.14,27.96.03,3.19.06,4.32-.86,4.36-4.2.13-10.82.26-10.82,11.01-10.82,11.15,0,22.31.12,33.46-.07,3.53-.06,4.8,1.05,4.42,4.56-1.34,12.49-2.61,24.99-3.78,37.49-.83,8.89-1.44,17.81-2.21,26.71-.98,11.37-2.03,22.73-2.99,34.1-.17,2.07-1.41,2.76-3.16,3.24-11.19,3.04-22.39,6.06-33.53,9.25-2.59.74-3.34-.04-3.3-2.48.05-3.99,0-7.98,0-11.98.2-.81.71-1.38,1.44-1.76,6.14-2,12.3-4.11,18.64-5.21,6.51-1.13,10.61-3.96,10.94-10.93.97-2.04.36-4.06-.07-6.09,1.01-12.97,1.69-25.96,3.47-38.86,1.56-2.22,1.17-4.59.53-6.98-.28-3.01.45-5.96.62-8.94.2-3.51-1.17-4.71-4.61-4.68-10.48.1-20.97.11-31.46.01-10.27.3-20.53.1-30.79.1-1.98,0-4.01-.04-5.59-1.55Z"/>
  <path class="cls-10" d="m60.3,109.31c-.37.29-.75.58-1.12.86-9.19-2.64-18.34-5.43-27.6-7.83-3.16-.82-4.24-2.23-4.3-5.41-.1-5.28-.7-10.56-1.07-15.84-.07-.99-.42-2.6.03-2.89,3.88-2.47,8.25-.59,12.38-1.14,2.4-.32,2.78,1.28,2.65,3.08-.57,7.72,3.4,11.18,10.71,11.75,2.45.19,4.65,1.8,7.24,1.41.72-.7,1.44-.61,2.16,0-1.3,5.26-.4,10.68-1.08,15.99Z"/>
  <path class="cls-4" d="m22.29,25.3c12.31.03,24.62.05,36.93.08,1.71,1.91,1.39,4.29,1.48,6.57.22,5.47.45,5.69,6.06,5.81,3.94.08,7.92-.38,11.82.33,2.53.46,4.64,1.54,1.9,4.46-4.88-1.01-9.82-.71-14.75-.77-2.29-.03-4.65.18-6.6-1.44-10.58-.07-21.16-.26-31.73-.15-3.09.03-4.37-.78-4.59-4.03-.24-3.62-.72-7.22-.54-10.86Z"/>
  <path class="cls-10" d="m59.22,70.4c-9.75-.06-19.51-.3-29.25-.08-3.78.09-5.26-1.17-4.7-4.76.55-3.52-1.61-7.01,0-10.51,11.23-.56,22.46-.28,33.69-.15,3.03,4.76,1.85,9.78.9,14.78-.21.24-.43.48-.65.72Z"/>
  <path class="cls-2" d="m61.14,93.46c-.64-.05-1.28-.1-1.92-.14.03-7.35.06-14.7.09-22.05,5.8-2.51,11.71-1.66,17.63-.59,3.43,6.11,1.98,12.93-.66,17.98-2.52,4.8-9.37,5.21-15.13,4.8Z"/>
  <path class="cls-3" d="m59.22,55.35c-11.32-.1-22.63-.19-33.95-.29,6.82-1.75,13.76-.59,20.64-.7,13.39-.22,13.39-.06,13.25-13.52,0-.17,0-.33-.01-.5,5.99-.05,11.99-.09,17.98-.16,1.54-.02,3.08-.1,3.23,2.05,1.62,2.1.48,4.14-.13,6.2-1.38,2.2.18,4.94-1.3,7.13-6.59,1.77-13.17,2.23-19.71-.21Z"/>
  <path class="cls-5" d="m77.14,71.24c-5.94,0-11.89.02-17.83.03-.05-.29-.08-.57-.08-.86l-.06-.4c5.32-2.38,10.83-1.33,16.28-.76.93.1,1.85.72,1.69,1.99Z"/>
  <path class="cls-1" d="m77.14,71.24c-3.73-2.18-7.79-.52-11.67-.98-2.08-.25-4.21-.18-6.31-.25.02-4.89.04-9.77.06-14.66,5.08-.08,10.16-.08,15.23-.29,1.49-.06,3.29.92,4.47-.88-.22-2-.67-4.01.33-5.93.37-2,.73-4,1.1-6,1.64-2.89-.38-2.95-2.34-2.96-4.96-.03-9.93-.15-14.89.04-3.05.12-4.16-1-3.98-4.01.2-3.3.06-6.61.08-9.92,11.56-.08,23.13-.13,34.69-.28,2.27-.03,2.71.75,2.45,2.92-.52,4.41-.68,8.87-.99,13.31.3,1.99.82,4-.36,5.9-.95,9.89-1.93,19.77-2.85,29.66-.32,3.46-.52,6.93-.77,10.4.36,1.64.57,3.29-.15,4.9.51,8.36-4.56,10.95-11.78,12.19-6.48,1.11-12.78,3.24-19.16,4.92-1.42-5.37-2.72-10.74.84-15.85,3.62-1.06,7.2-2.38,10.89-3.1,2.95-.57,4.34-1.76,4.17-4.87-.26-4.78,1.7-9.43.94-14.25Z"/>
  <path class="cls-8" d="m95.01,47.23c.12-1.97.24-3.93.36-5.9,1.15,2.04,1.49,4.04-.36,5.9Z"/>
  <path class="cls-7" d="m91.25,92.19c.05-1.63.1-3.27.15-4.9,1.17,1.67,1.26,3.31-.15,4.9Z"/>
  <path class="cls-6" d="m79.26,48.24c-.11,1.98-.22,3.96-.33,5.93-1.09-2.04-1.33-4.04.33-5.93Z"/>
</svg>