<?xml version="1.0" encoding="UTF-8"?>
<svg id="_레이어_1" data-name="레이어 1" xmlns="http://www.w3.org/2000/svg" viewBox="0 0 118.55 135.3">
  <defs>
    <style>
      .cls-1 {
        fill: #fefefe;
      }

      .cls-1, .cls-2, .cls-3, .cls-4, .cls-5 {
        stroke-width: 0px;
      }

      .cls-2 {
        fill: #fefdfd;
      }

      .cls-3 {
        fill: #f06529;
      }

      .cls-4 {
        fill: #e34d26;
      }

      .cls-5 {
        fill: #eaeaea;
      }
    </style>
  </defs>
  <path class="cls-4" d="m59.44.08c18.16,0,36.31.1,54.47-.08,3.65-.04,4.95.73,4.57,4.65-2.08,21.5-3.95,43.01-5.85,64.53-1.45,16.38-2.93,32.75-4.17,49.15-.21,2.78-1.06,4.16-3.71,4.88-14.08,3.81-28.14,7.71-42.2,11.62-2.32.65-4.52.62-6.85-.04-13.88-3.92-27.78-7.77-41.7-11.58-2.49-.68-3.62-1.73-3.86-4.67-2.52-30.64-5.27-61.26-7.97-91.89C1.54,19.38,1.12,12.08.12,4.86-.49.5,1.28-.02,4.97.01c18.16.15,36.31.07,54.47.07Z"/>
  <path class="cls-3" d="m59.31,24.34c0-3.66.13-7.32-.05-10.97-.14-2.94.79-4.14,3.93-4.11,13.8.13,27.6.11,41.4.01,2.84-.02,3.97,1,3.68,3.79-1.26,12.3-2.55,24.6-3.72,36.9-.84,8.87-1.52,17.76-2.27,26.64-1.01,11.84-2.03,23.67-3.01,35.51-.17,2.03-1.37,2.78-3.15,3.26-11.18,3.03-22.36,6.04-33.49,9.22-2.56.73-3.38.01-3.35-2.44.04-3.99,0-7.98,0-11.96.21-.92.78-1.54,1.58-1.99,7.06-2.51,14.35-4.2,21.59-6.08,4.24-1.1,6.46-3.19,6.76-7.82.71-10.93,1.97-21.82,2.77-32.75.29-3.89-1.22-4.93-4.78-4.89-9.48.1-18.96.08-28.45.03-4.74.24-9.48.18-14.21.04-2.02-.06-4.39.3-5.42-2.28,3.25-2.91,7.23-1.56,10.88-1.67,7.44-.23,7.44-.08,7.81-7.62.09-1.81.06-3.65,1.29-5.18,1.9-1.41,4.12-1.1,6.25-1.11,7.48-.05,14.95,0,22.43-.03,1.81,0,3.68.28,5.28-.89,2.78-3.68,2.41-7.52.63-11.43-1.64-1.21-3.53-.82-5.32-.83-7.64-.04-15.28.02-22.93-.04-2.11-.02-4.37.41-6.13-1.33Z"/>
  <path class="cls-5" d="m39.55,54.26c3.98,2.17,8.26.55,12.38.97,2.45.25,4.93.14,7.4.19,2.48,4.67,1.68,9.49.65,14.32-.21.23-.41.46-.62.69-9.98-.06-19.96-.17-29.95-.14-2.49,0-3.92-.29-4.14-3.37-.9-12.92-1.97-25.83-3.26-38.72-.31-3.07.58-3.69,3.37-3.68,11.31.04,22.62-.1,33.94-.17,10.71.08,21.43.12,32.14.27,1.56.02,3.31-.67,4.69.71-1.91,1.78-4.32,1.48-6.6,1.5-7.79.07-15.58-.06-23.37.06-4.67.07-5.2.94-5.34,5.67-.11,3.92,1.66,5.25,5.37,5.21,7.46-.09,14.92-.07,22.38,0,2.29.02,4.69-.24,6.6,1.52-1.23,1.74-3.05.84-4.56.86-10.44.15-20.88.16-31.32.22-3.83,2.47-8.1,1.2-12.17,1.35-5.67.21-7.98-.42-6.54,6.83.39,1.95.28,4-1.04,5.73Z"/>
  <path class="cls-5" d="m60.47,109.33c-.39.29-.78.58-1.17.87-9.02-2.6-18.02-5.3-27.09-7.75-2.82-.76-3.96-1.93-4.05-5.04-.17-5.44-.95-10.87-1.66-16.28-.33-2.55.33-3.83,3.06-3.64.99.07,1.99,0,2.98,0,9.03-.01,9.09-.01,9.74,9.21.15,2.05.46,3.26,2.91,3.67,4.05.68,8.01,1.91,12.01,2.9.87.67,2.34.27,2.86,1.58,1.14,4.79.79,9.63.4,14.46Z"/>
  <path class="cls-3" d="m59.34,94.3c-.71-.34-1.42-.68-2.13-1.02,2.67-.43,2.07-2.53,2.08-4.22.06-6.21.05-12.42.06-18.63,0,0-.08-.37-.08-.37,5.25-2.38,10.71-1.28,16.11-.88,2.13.16,3.11,1.89,3.18,3.86.16,4.97-.71,9.88-1.23,14.81-.12,1.18-.84,2.35-1.92,2.77-5.17,2.02-10.2,4.73-16.07,3.69Z"/>
  <path class="cls-1" d="m59.34,94.3c4.72-1.35,9.42-2.82,14.19-3.98,1.76-.43,2.56-1.14,2.69-2.9.33-4.44.64-8.88,1.14-13.3.33-2.94-.49-4.13-3.71-3.97-4.78.24-9.58-.04-14.37-.09.02-4.88.04-9.76.06-14.64,10.49-.06,20.98-.07,31.47-.22,2.58-.04,3.26.51,2.96,3.38-1.36,13.05-2.41,26.13-3.41,39.21-.17,2.27-.63,3.74-3.02,4.37-8.97,2.34-17.91,4.77-26.86,7.17-2.56-4.85-.52-10.04-1.13-15.03Z"/>
  <path class="cls-2" d="m95.17,39.27c-10.47,0-20.94-.13-31.4.06-3.49.06-4.55-1.05-4.55-4.53.02-9.45-.13-9.45,9.5-9.45,9.14,0,18.27-.02,27.41-.03.44,4.7.21,9.36-.97,13.96Z"/>
  <path class="cls-4" d="m39.55,54.26c-.36-3.59-.59-7.2-1.11-10.77-.38-2.63.47-3.51,3.11-3.41,5.91.21,11.83.19,17.74.27-.3,4.4,1.89,10-.92,12.91-2.84,2.94-8.48.68-12.87.99-1.97.14-3.97.02-5.95.02Z"/>
</svg>