<?xml version="1.0" encoding="UTF-8"?>
<svg id="_레이어_1" data-name="레이어 1" xmlns="http://www.w3.org/2000/svg" viewBox="0 0 119.26 135.26">
  <defs>
    <style>
      .cls-1 {
        fill: #fefefe;
      }

      .cls-1, .cls-2, .cls-3, .cls-4, .cls-5 {
        stroke-width: 0px;
      }

      .cls-2 {
        fill: #edeeed;
      }

      .cls-3 {
        fill: #63a714;
      }

      .cls-4 {
        fill: #89ce17;
      }

      .cls-5 {
        fill: #eaeaea;
      }
    </style>
  </defs>
  <path class="cls-3" d="m60.24.07c18.14,0,36.29.08,54.43-.07,3.74-.03,4.95.43,4.49,4.83-2.12,20.47-3.64,40.99-5.46,61.49-1.57,17.69-3.29,35.38-4.81,53.08-.2,2.28-1.06,2.88-3.18,3.44-14.72,3.91-29.39,8-44.04,12.15-1.56.44-2.81.29-4.3-.13-14.5-4.09-29.01-8.18-43.59-12-2.48-.65-3.04-1.58-3.24-3.92C7.66,85.53,4.65,52.12,1.66,18.71c-.41-4.63-.43-9.34-1.39-13.86C-.57.9.47-.03,4.31,0c18.64.15,37.29.07,55.93.07Z"/>
  <path class="cls-4" d="m59.7,24.56c.01-3.66.19-7.32-.02-10.97-.17-3.13,1.12-3.98,4.08-3.95,13.64.11,27.28.15,40.92-.02,3.48-.04,4.34,1.35,4.03,4.44-1.66,16.42-3.38,32.84-4.87,49.27-1.19,13.16-2.07,26.36-3.13,39.53-.25,3.12-.81,6.23-.96,9.35-.11,2.36-1.93,2.58-3.39,2.99-11.31,3.17-22.67,6.2-33.98,9.37-2.6.73-2.58-.58-2.69-2.5-.25-4.1.98-8.31-.87-12.29.3-.52.72-.93,1.24-1.21,7.72-2.61,15.56-4.84,23.5-6.71,3.68-.87,5.62-2.69,6.01-6.71,1.3-13.39,2.5-26.8,3.64-40.2.67-7.95,1.44-15.88,2.18-23.82.35-3.75-.94-5.08-4.66-5.02-8.15.15-16.31.1-24.46.01-2.27-.02-4.73.45-6.56-1.55Z"/>
  <path class="cls-1" d="m59.7,24.56c10.82.04,21.64.24,32.45.05,3.96-.07,5.33.44,4.85,5.08-2.36,22.79-4.24,45.63-6.26,68.45-.15,1.64.11,3.16-2.22,3.74-9.61,2.39-18.96,5.78-28.74,7.56-2.34-5.37-2.66-10.68.5-15.87,2.41-2.7,5.94-2.85,9.07-3.73,3.9-1.1,5.66-3.16,6.05-7.33,1.13-12.08,1.93-24.19,3.46-36.23.47-3.72-.69-5.09-4.45-5.23-4.91-.18-9.99,1.21-14.72-1.22-.31-.11-.63-.23-.94-.34-.35-.47-.52-.99-.52-1.57.67-4.33-1.17-8.96,1.54-13.05l-.09-.3Z"/>
  <path class="cls-4" d="m59.7,39.82c5.99-.06,11.98.02,17.95-.23,2.83-.12,3.36,1.07,3.11,3.51-1.44,14.35-2.85,28.71-4.19,43.07-.23,2.53-1.45,3.84-3.84,4.43-4.02.99-8.01,2.1-12.01,3.17-.44.28-.79.21-1.02-.28,0-17.89,0-35.78,0-53.67Z"/>
  <path class="cls-5" d="m59.71,93.49c.34.09.68.19,1.02.28-2.01,5.12-.57,10.44-.95,15.66-.32.11-.65.23-.97.34-8.77-2.43-17.51-4.99-26.34-7.2-2.88-.72-4.16-2.12-4.35-4.94-.39-5.64-.8-11.27-1.33-16.9-.22-2.38.58-3.41,3.01-3.12.98.12,1.99.02,2.99.02,8.83,0,8.85,0,9.77,8.64.18,1.65-.08,3.33,2.2,3.8,5.01,1.02,9.72,3.31,14.94,3.43Z"/>
  <path class="cls-5" d="m59.79,24.86c-.58,4.58,1.04,9.33-1.03,13.81-11.95.77-23.9.8-35.85,0-.11-1.66-.24-3.31-.33-4.97q-.53-8.95,8.76-8.95c9.48.02,18.96.08,28.44.12Z"/>
  <path class="cls-2" d="m22.92,38.66c11.95,0,23.9,0,35.85,0,0,.27,0,.55,0,.82-11.3.06-22.61.11-33.91.16-.78,0-1.7.16-1.93-.98Z"/>
</svg>


