<?xml version="1.0" encoding="UTF-8"?>
<svg id="_레이어_1" data-name="레이어 1" xmlns="http://www.w3.org/2000/svg" viewBox="0 0 78 172.78">
  <defs>
    <style>
      .cls-1 {
        fill: #55b258;
      }

      .cls-1, .cls-2, .cls-3, .cls-4, .cls-5, .cls-6, .cls-7, .cls-8, .cls-9, .cls-10, .cls-11, .cls-12, .cls-13, .cls-14, .cls-15, .cls-16, .cls-17, .cls-18, .cls-19, .cls-20, .cls-21, .cls-22, .cls-23, .cls-24, .cls-25, .cls-26, .cls-27, .cls-28, .cls-29, .cls-30, .cls-31, .cls-32, .cls-33, .cls-34, .cls-35, .cls-36 {
        stroke-width: 0px;
      }

      .cls-2 {
        fill: #969870;
      }

      .cls-3 {
        fill: #149c38;
      }

      .cls-4 {
        fill: #65b967;
      }

      .cls-5 {
        fill: #b1ae8d;
      }

      .cls-6 {
        fill: #bfbda1;
      }

      .cls-7 {
        fill: #198233;
      }

      .cls-8 {
        fill: #1b8634;
      }

      .cls-9 {
        fill: #a7a581;
      }

      .cls-10 {
        fill: #24a03d;
      }

      .cls-11 {
        fill: #1e8936;
      }

      .cls-12 {
        fill: #5cb55f;
      }

      .cls-13 {
        fill: #62b964;
      }

      .cls-14 {
        fill: #50b054;
      }

      .cls-15 {
        fill: #4cae51;
      }

      .cls-16 {
        fill: #54964f;
      }

      .cls-17 {
        fill: #9f9e78;
      }

      .cls-18 {
        fill: #59b45c;
      }

      .cls-19 {
        fill: #48ac4e;
      }

      .cls-20 {
        fill: #3da746;
      }

      .cls-21 {
        fill: #38a543;
      }

      .cls-22 {
        fill: #ceccb5;
      }

      .cls-23 {
        fill: #29a13e;
      }

      .cls-24 {
        fill: #199d39;
      }

      .cls-25 {
        fill: #23903a;
      }

      .cls-26 {
        fill: #b7b595;
      }

      .cls-27 {
        fill: #1f9e3b;
      }

      .cls-28 {
        fill: #2ea240;
      }

      .cls-29 {
        fill: #acaa87;
      }

      .cls-30 {
        fill: #159c38;
      }

      .cls-31 {
        fill: #208c38;
      }

      .cls-32 {
        fill: #1d8735;
      }

      .cls-33 {
        fill: #119b36;
      }

      .cls-34 {
        fill: #34a442;
      }

      .cls-35 {
        fill: #0d9935;
      }

      .cls-36 {
        fill: #42a94a;
      }
    </style>
  </defs>
  <path class="cls-31" d="m67,41.18c3.82,7.13,6.53,14.68,8.36,22.55.32,2.07-1.45,1.94-2.55,2.16-2.58.53-5.19.96-7.81,1.34-7.26,1.04-14.48,2.35-21.73,3.45-1.21.18-2.35.21-3.26-.79-.71-1.1-.23-2.29-.24-3.43-.04-5.93-.03-11.86-.01-17.79,0-.95-.1-1.91.19-2.83.66-.99,1.65-1.37,2.77-1.55,7.02-1.16,14.06-2.18,21.06-3.42,1.1-.2,2.19-.25,3.22.32Z"/>
  <path class="cls-8" d="m77.01,97.34c-1.18,8.22-3.45,16.1-7.36,23.46-3.72,1.25-7.62,1.53-11.45,2.15-5,.81-9.99,1.68-15.01,2.38-1.03.14-1.98.49-2.55,1.52-.24.43-.66.83-1.28.53-.97-1.03-.8-2.24-.53-3.44.17-.78.09-1.57.21-2.35.45-2.78.2-5.62.6-8.41.13-2.38-.33-4.75-.16-7.13.08-1.1.2-2.16.94-3.04,1.44-1.36,3.34-1.39,5.12-1.68,8.88-1.46,17.78-2.83,26.66-4.28,1.55-.25,3.31-1.1,4.83.3Z"/>
  <path class="cls-25" d="m67,41.18c-5.05,1.24-10.22,1.79-15.33,2.66-3.75.64-7.51,1.2-11.26,1.79-1.1-1.44-.67-3.29-1.31-4.86-.03-1.09-.17-2.18,0-3.28.32-1.16.08-2.31.02-3.48-.17-3.07-.19-6.13.15-9.2.25-2.26.04-4.53-.59-6.73-.03-.69-.13-1.37-.06-2.06.42-1.31.22-2.61-.05-3.92.31-1.55.08-3.05-.35-4.55-.07-2.35-.18-4.71.46-7.02,3.17,8.82,10.19,14.78,16.03,21.64,4.92,5.79,9.15,12.06,12.3,19.01Z"/>
  <path class="cls-11" d="m76.62,69.05c.98,4.81,1.35,9.68,1.31,14.58-1.56,1.21-3.5.99-5.26,1.27-9.92,1.55-19.83,3.17-29.74,4.77-.73.12-1.44.26-2.17,0-.39-.19-.67-.47-.85-.86-.73-3.16-.37-6.38-.45-9.57.69-1.42-.27-3.06.56-4.47,1.52-1.5,3.6-1.14,5.41-1.46,7.11-1.25,14.26-2.28,21.38-3.5,2.73-.47,5.48-.85,8.22-1.3.65-.1,1.15.07,1.6.52Z"/>
  <path class="cls-32" d="m40.85,89.38c4.46-1.63,9.22-1.75,13.83-2.59,6.86-1.24,13.78-2.16,20.66-3.3.92-.15,1.73-.1,2.58.13.25,4.61-.16,9.17-.91,13.71-7.87,1.24-15.74,2.47-23.61,3.71-4.19.66-8.37,1.35-12.55,2.03-.54-.39-.62-.98-.63-1.57-.04-3.52-.04-7.04,0-10.56,0-.59.09-1.18.63-1.57Z"/>
  <path class="cls-7" d="m39.56,127.4c.16-2.6,2.03-2.83,4.07-3.13,7.83-1.19,15.65-2.49,23.46-3.78.92-.15,1.75-.12,2.56.31-3.42,7.76-8.37,14.48-14.18,20.61-3.09,3.26-6.4,6.28-10.01,8.96-.63.11-1.2-.02-1.71-.4-.32-.24-.57-.56-.82-.87-.3-.4-.73-.71-.92-1.2-.24-.71-.71-1.29-1.08-1.93-.57-1.14-.47-2.48-1.08-3.61-.52-3.17-.96-6.34-.97-9.56.05-.75-.22-1.48-.23-2.23.01-.63.26-1.24.24-1.88,0-.55.18-1,.69-1.28Z"/>
  <path class="cls-27" d="m2.4,62.42c.18-2.46.9-4.79,1.72-7.09,1.28-.61,1.72.38,2.14,1.21.63,1.25.98,2.62,1.42,3.94,6.6,19.82,13.15,39.66,19.87,59.44,2.77,8.15,5.5,16.31,8.26,24.46.61,1.81,1.13,3.65,1.27,5.57-.06.94-.21,1.79-1.46,1.71-1.66-1.44-3.31-2.88-4.97-4.32-6.9-19.85-13.35-39.86-20.06-59.77-2.54-7.52-4.96-15.09-7.58-22.58-.29-.84-.35-1.73-.61-2.57Z"/>
  <path class="cls-34" d="m39.56,127.4c-.02.44-.03.89-.05,1.33-.3,1.1-.88,1.25-1.72.51-.63-.56-.9-1.34-1.17-2.1-7.61-21.3-14.65-42.8-21.63-64.31-1.86-5.73-3.81-11.43-5.71-17.14-.45-1.34-.73-2.67-.27-4.07.34-1.29.89-2.49,1.67-3.58,1.06-.29,1.42.53,1.84,1.19.43.69.65,1.48.91,2.24,8.51,24.98,16.84,50.02,25.2,75.05.56,1.68.47,3.51,1.32,5.1-.13,1.92-.26,3.84-.39,5.76Z"/>
  <path class="cls-20" d="m40.85,89.38c0,4.57,0,9.13,0,13.7-.73,3.36-.29,6.77-.47,10.16-1.13.59-1.59-.28-2.06-.99-.49-.74-.72-1.6-1-2.44-8.22-24.12-16.25-48.3-24.34-72.46-.31-.93-.41-1.85-.48-2.8.67-1.73,1.62-3.3,2.74-4.77,1.56.58,1.73,2.1,2.18,3.38,5.47,15.77,10.73,31.61,15.98,47.45,2.08,6.28,4.23,12.54,6.15,18.47-.04-2.47-.1-5.32,0-8.18.28-.66.14-1.52.89-1.97.14.15.28.31.43.46Z"/>
  <path class="cls-23" d="m5.47,50.92c.3-1.74.91-3.37,1.74-4.93,1.84.34,2.03,1.97,2.47,3.31,4.85,14.65,9.98,29.2,14.8,43.86,4.29,13.05,8.69,26.07,13.05,39.11.56,1.66.75,3.45,1.73,4.97-.03,2.11.58,4.35-1.18,6.13-2.08.32-2.39-1.38-2.83-2.69-2.05-6.13-4.29-12.2-6.32-18.35-4.95-15.01-9.87-30.03-15.03-44.97-2.73-7.92-5.28-15.9-7.97-23.84-.29-.85-.21-1.75-.47-2.59Z"/>
  <path class="cls-36" d="m40.4,91.14v10.96c-.22.05-.45.1-.67.15-8.17-24.16-16.34-48.32-24.51-72.47.69-1.47,1.58-2.82,2.63-4.06,1.69.42,1.82,1.97,2.27,3.24,4.48,12.53,8.54,25.19,12.77,37.8,1.83,5.43,3.56,10.9,5.48,16.3.94,2.65,1.27,5.41,2.02,8.09Z"/>
  <path class="cls-24" d="m2.4,62.42c1.12.77,1.45,2,1.84,3.18,8.79,26.33,17.58,52.67,26.37,79,.31.92.67,1.82.04,2.74-1.62-1.18-3.1-2.51-4.38-4.06-1.21-1.96-1.88-4.14-2.6-6.3-6.03-18.14-12.08-36.27-18.15-54.39-1.07-3.2-2.3-6.36-3.32-9.58-.55-1.74-.99-3.5-.71-5.35.02-1.8.34-3.55.92-5.26Z"/>
  <path class="cls-10" d="m5.47,50.92c1.32,1.2,1.63,2.91,2.16,4.48,5.3,15.82,10.56,31.66,15.86,47.49,4.23,12.62,8.5,25.22,12.76,37.83.33.96.51,2.02,1.52,2.59,1.06,1.74.31,5.49-1.33,6.63-.21-.85-.36-1.73-.64-2.56-10-29.89-20.01-59.77-30.04-89.64-.31-.93-.34-2.12-1.64-2.41.24-1.53.62-3.03,1.35-4.41Z"/>
  <path class="cls-21" d="m12.49,34.54c1.05.94,1.33,2.27,1.74,3.51,5.92,17.72,11.81,35.45,17.74,53.17,2.17,6.49,4.4,12.95,6.63,19.42.35,1.01.51,2.2,1.77,2.61.32,2.82-.51,5.59-.43,8.4-1.15-.68-1.28-1.93-1.65-3.02-6.67-19.97-13.32-39.96-20-59.93-2.01-6-4.09-11.98-6.14-17.97-.33-.97-.65-1.96-1.49-2.66.44-1.25.96-2.46,1.81-3.51Z"/>
  <path class="cls-28" d="m38.61,137.12c-.94-.56-1-1.59-1.29-2.48-7.07-21.16-14.12-42.33-21.19-63.5-2.54-7.61-5.15-15.2-7.75-22.79-.28-.82-.77-1.58-1.16-2.36.41-1.54.95-3.02,1.8-4.37.05,1.52.88,2.79,1.34,4.18,7.77,23.55,15.57,47.09,23.4,70.62,1.28,3.84,2.69,7.63,4.11,11.42.24.64.31,2.1,1.65.89,0,.6,0,1.2-.01,1.81-.38.78-.11,1.62-.19,2.42-.17,1.4.46,2.93-.7,4.17Z"/>
  <path class="cls-19" d="m40.4,91.14c-.78-.67-.91-1.66-1.21-2.56-5.64-16.88-11.24-33.77-16.91-50.64-1.38-4.11-2.95-8.15-4.43-12.22.73-1.3,1.56-2.53,2.64-3.57,1.24.21,1.59,1.23,1.92,2.19,3.67,10.86,7.36,21.72,10.85,32.64,1.39,4.34,2.7,8.71,4.31,12.97,1.15,3.03,1.89,6.16,2.8,9.25.02,3.24.03,6.48.05,9.72,0,.74-.02,1.48-.02,2.21Z"/>
  <path class="cls-15" d="m40.38,79.2c-1.13-.69-1.27-1.93-1.64-3.02-5.66-16.92-11.29-33.85-16.94-50.77-.37-1.11-.87-2.18-1.31-3.26.53-1.06,1.29-1.94,2.17-2.73,1.67.43,1.87,1.94,2.3,3.23,4.09,12.17,8.37,24.28,12.33,36.49.61,1.87,1.3,3.7,1.77,5.38.09-2.64-.21-5.51.13-8.37.13-3.53-.4-7.05-.18-10.58.28-.91.37-1.83.21-2.77-.14-.84,0-1.57.78-2.07.81,1.57.2,3.27.42,4.9,0,8.1.01,16.21.02,24.31,1.12.97.93,2.19.67,3.42-.02.57-.25,1.04-.64,1.44-.03,1.47-.05,2.93-.08,4.4Z"/>
  <path class="cls-14" d="m39.97,56.67v11.28c-1.15-.71-1.26-1.61-1.52-2.4-4.82-14.29-9.63-28.59-14.46-42.88-.38-1.11-.88-2.18-1.33-3.27.69-1.16,1.57-2.16,2.61-3.01,1.65-.22,1.91,1.11,2.29,2.16,1.17,3.25,2.23,6.54,3.3,9.83,2.27,6.99,4.75,13.91,7.17,20.86.85,2.44,1.06,5.02,1.94,7.43Z"/>
  <path class="cls-33" d="m19.18,135.39c-2.56-2.85-4.8-5.93-6.63-9.31-3.69-10.13-6.92-20.41-10.38-30.61-.63-1.87-1.05-3.81-1.87-5.62-.34-3.69-.43-7.37-.05-11.06,1.91.07,2,1.72,2.42,2.95,3.61,10.74,7.18,21.48,10.77,32.22,1.98,5.93,3.86,11.89,6,17.77.44,1.2,1.04,2.53-.26,3.66Z"/>
  <path class="cls-30" d="m1.49,67.68c1.19,3.63,2.35,7.26,3.56,10.88,6.92,20.64,13.85,41.28,20.8,61.92.31.92.47,1.85.43,2.81-1.34-1.13-2.6-2.35-3.6-3.81-3.68-8.74-6.15-17.9-9.24-26.84-3.83-11.11-7.41-22.3-11.25-33.41-.65-1.89-.91-3.85-1.5-5.74-.24-2.01.32-3.9.81-5.81Z"/>
  <path class="cls-3" d="m.68,73.49c.87,1.12,1.4,2.41,1.85,3.73,3.95,11.71,7.93,23.4,11.85,35.12,2.66,7.95,5.23,15.93,7.85,23.89.35,1.06.6,2.12.45,3.24-1.35-1.21-2.52-2.56-3.5-4.09.26-2.34-1.05-4.25-1.74-6.32-5.28-15.94-10.6-31.86-15.92-47.78-.3-.88-.35-1.92-1.27-2.5-.18-1.79.25-3.54.43-5.3Z"/>
  <path class="cls-1" d="m39.97,56.67c-.97-.52-1.02-1.57-1.32-2.44-4.02-11.88-8.03-23.77-12.05-35.65-.28-.81-.39-1.76-1.33-2.17.96-1.24,1.93-2.48,3.22-3.41.98.3,1.28,1.18,1.57,2,3.19,8.86,6.11,17.81,8.93,26.79.39,1.25.24,2.65.95,3.83,0,3.69,0,7.37.01,11.06Z"/>
  <path class="cls-11" d="m40.43,73.47c0-1.18,0-2.36,0-3.53,5.04-.4,9.99-1.45,14.98-2.22,6.07-.95,12.13-1.99,18.2-2.99.7-.12,1.54-.01,1.75-.99.62,1.25.87,2.6.97,3.98-.39.76-1.19.93-1.87,1.03-5.77.82-11.51,1.85-17.27,2.73-5.04.77-10.05,1.73-15.12,2.34-.62.07-1.16.13-1.64-.33Z"/>
  <path class="cls-35" d="m.3,89.85c1.23.85,1.71,2.17,2.15,3.5,3.22,9.61,6.41,19.23,9.64,28.83.43,1.29.49,2.58.46,3.91-5.97-8.99-9.63-18.89-11.47-29.48-.39-2.23-.53-4.5-.78-6.75Z"/>
  <path class="cls-12" d="m39.54,17.75c.44.57.38,1.24.39,1.9.01,6.01.02,12.01.03,18.02-1.92.08-2.14-1.53-2.54-2.76-1.79-5.42-3.44-10.89-5.31-16.28-.53-1.52-1.14-3.01-1.66-4.53-.29-.83-.56-1.67-.34-2.57.77-1.03,1.73-1.85,2.81-2.54,1.14.07,1.68.89,2.01,1.79,1.48,4.06,2.94,8.13,3.9,11.81.01-1.29-.93-3.23.72-4.84Z"/>
  <path class="cls-18" d="m30.11,11.52c1.45,1.66,1.83,3.81,2.51,5.78,2.03,5.89,3.89,11.84,5.83,17.77.32.97.51,2.02,1.51,2.59.01,1.02.02,2.04.03,3.07-.01,1.63-.03,3.25-.04,4.88-.71-.37-1-1.05-1.23-1.75-3.41-10.29-6.82-20.58-10.22-30.87.39-.65.92-1.15,1.61-1.47Z"/>
  <path class="cls-31" d="m40.43,73.47c11.97-1.92,23.93-3.85,35.9-5.77.34.4.34.87.3,1.35-6.86,1.09-13.72,2.18-20.58,3.27-5.2.83-10.39,1.65-15.59,2.48,0-.44-.02-.89-.03-1.33Z"/>
  <path class="cls-13" d="m39.54,17.75v7.81c-.96-1-1.19-1.82-1.46-2.63-1.23-3.68-2.48-7.35-3.68-11.04-.34-1.06-.84-2.02-1.49-2.91.86-.8,1.71-1.6,2.57-2.39,1.33.35,1.6,1.55,2.05,2.59.96,2.19,1.09,4.62,1.98,6.83,0,.58.02,1.16.02,1.74Z"/>
  <path class="cls-4" d="m39.52,16c-1.15-.68-1.25-1.94-1.66-3.02-.81-2.13-1.58-4.27-2.37-6.4,1.28-1.85,2.43-3.74,2.54-6.11.03-.67.47-.62.65.05.28,2.34.56,4.67.43,7.03.54,1.45-.11,2.99.37,4.44.01,1.33.03,2.67.04,4Z"/>
  <path class="cls-2" d="m38.61,137.12c.32-1.45.54-2.9.5-4.39.13-.32.25-.32.38,0,.07,3.29.68,6.51,1.26,9.73-.29,3.25-1.49,6.25-2.57,9.27-.3.83-.5,1.92-1.82,1.77-.24-.61-.49-1.22-.73-1.84.68-.38.83-1.02.81-1.73.84-2.13,1.18-4.36,1.33-6.63.56-2.02.81-4.09.84-6.19Z"/>
  <path class="cls-17" d="m36.36,153.51c1.53-2.76,2.09-5.87,3.22-8.78.31-.8.34-1.75,1.18-2.27.32,1.17.64,2.34.96,3.51-.14,3.85-2.09,7.18-3.17,10.76-.15.5-.68.73-1.24.74-.32-1.32-.63-2.64-.95-3.96Z"/>
  <path class="cls-26" d="m44.01,149.35c.48.34.96.67,1.45,1.01-2.28,2.88-2.28,6.41-2.81,9.79-.06-.04-.13-.07-.18-.12-.06-.05-.14-.15-.15-.15-.42.34-.32.87-.44,1.31-1,3.44-2.26,6.81-3.22,10.26-.8-1.82-.32-3.74-.4-5.62.86-5.15,2.83-9.97,4.41-14.91.22-.7.47-1.42,1.35-1.58Z"/>
  <path class="cls-22" d="m42.6,162.32v10.46c-.91-.11-2.04-.51-3.11-1.1-.46-.57-.31-1.2-.24-1.86.25-2.34,1.41-4.38,2.08-6.59.16-.53.52-1.06,1.27-.92Z"/>
  <path class="cls-29" d="m42.58,147.75c.27.3.54.61.81.91.14,1.15-.39,2.15-.76,3.17-1.47,4.12-2.43,8.43-4.47,12.34-.38-1.18-.41-2.4-.38-3.63.41-4.33,2.36-8.18,3.78-12.2.15-.43.49-.72,1.02-.6Z"/>
  <path class="cls-6" d="m42.6,162.32c-1.35,3.02-2.46,6.11-3.11,9.36-.28-.07-.56-.15-.84-.22-.21-4.86,2.44-8.92,3.85-13.37.05.69.1,1.37.14,2.06-.02.72-.03,1.44-.05,2.16Z"/>
  <path class="cls-9" d="m42.58,147.75c-1.65,3.4-2.68,7.04-3.88,10.6-.25.75-.61,1.46-.92,2.19-.78-.93-.37-2.04-.48-3.07,1.63-2.62,2.1-5.68,3.2-8.5.39-1,.8-2,1.21-3,.33.57.94,1.01.87,1.77Z"/>
  <path class="cls-5" d="m38.16,164.17c-.05-2.45,1.53-4.38,2.19-6.61.89-3.01,2.02-5.94,3.05-8.91.21.23.41.46.62.69-1.62,4.76-3.23,9.52-4.86,14.28-.26.75-.6,1.48-.9,2.21-.03-.56-.06-1.12-.08-1.67Z"/>
  <path class="cls-13" d="m39.48,12c-.76-1.43-.25-2.96-.37-4.44.71,1.43.31,2.95.37,4.44Z"/>
  <path class="cls-16" d="m39.49,132.73s-.19-.02-.19-.02c0,0-.19.01-.19.01,0-.76-.19-1.54.39-2.2,0,.73,0,1.47-.01,2.2Z"/>
</svg>