<svg data-testid="geist-icon" fill="none" height="36" viewBox="0 0 36 36" width="36" xmlns="http://www.w3.org/2000/svg">
    <path d="M32.5 19V18V8.5C32.5 5.73858 30.2614 3.5 27.5 3.5H8.5C5.73858 3.5 3.5 5.73858 3.5 8.5V27.5C3.5 30.2614 5.73858 32.5 8.5 32.5H20.5" fill="#092952" stroke="#3F71AF" stroke-linecap="round" stroke-width="1.25"></path>
    <path d="M28 13v13a1 1 0 0 1-1 1h-9c-1.105 0-2-.395-2-1.5v-3.7a9.927 9.927 0 0 0 2-.632l.013-.006a10.038 10.038 0 0 0 5.079-4.992A9.963 9.963 0 0 0 24 12v-2h1a3 3 0 0 1 3 3Z" fill="#3F71AF" fill-opacity="0.15"></path>
    <path d="M25.25 9.99995L25.25 9.37495L25.25 9.37495L25.25 9.99995ZM18 21.1679L18.2502 21.7406L18.2502 21.7406L18 21.1679ZM11.763 20.933C11.4499 20.7878 11.0783 20.9239 10.933 21.237C10.7878 21.5501 10.9239 21.9217 11.237 22.067L11.763 20.933ZM11.5441 25.1646L11.1577 24.6734L11.1577 24.6734L11.5441 25.1646ZM11.0928 27.9244L11.6859 27.7272L11.6859 27.7272L11.0928 27.9244ZM10.398 28.9094L10.2621 29.5194L10.2621 29.5194L10.398 28.9094ZM28.25 27.25V27.875H28.875V27.25H28.25ZM19.8519 20.1098L19.4858 19.6033L19.4858 19.6033L19.8519 20.1098ZM25.25 10.6249C26.5617 10.6249 27.625 11.6883 27.625 12.9999H28.875C28.875 10.9979 27.252 9.37495 25.25 9.37495V10.6249ZM24 10.625L25.25 10.6249L25.25 9.37495L24 9.37501L24 10.625ZM24.625 12V10H23.375V12H24.625ZM16.1243 22.4125C16.8637 22.2624 17.5753 22.0355 18.2502 21.7406L17.7498 20.5952C17.1547 20.8552 16.5275 21.0551 15.8757 21.1875L16.1243 22.4125ZM16.625 25.75V21.8H15.375V25.75H16.625ZM18 26.625C17.5051 26.625 17.1453 26.5335 16.9281 26.3913C16.7515 26.2757 16.625 26.1023 16.625 25.75H15.375C15.375 26.5022 15.6962 27.0789 16.2435 27.4371C16.7501 27.7688 17.3904 27.875 18 27.875V26.625ZM17 8.625H22V7.375H17V8.625ZM8.625 23.4286V17H7.375V23.4286H8.625ZM14 21.375C13.3601 21.375 12.7931 21.2622 12.3849 21.1481C12.1818 21.0913 12.0207 21.035 11.9128 20.9939C11.8589 20.9735 11.8185 20.9569 11.793 20.9461C11.7803 20.9407 11.7713 20.9367 11.7663 20.9345C11.7637 20.9333 11.7622 20.9326 11.7616 20.9324C11.7613 20.9323 11.7613 20.9323 11.7616 20.9324C11.7617 20.9324 11.7619 20.9325 11.7621 20.9326C11.7622 20.9327 11.7624 20.9327 11.7625 20.9328C11.7626 20.9328 11.7627 20.9329 11.7628 20.9329C11.7629 20.933 11.763 20.933 11.5 21.5C11.237 22.067 11.2371 22.067 11.2373 22.0671C11.2373 22.0671 11.2375 22.0672 11.2376 22.0672C11.2378 22.0673 11.238 22.0675 11.2383 22.0676C11.2388 22.0678 11.2394 22.0681 11.24 22.0684C11.2413 22.0689 11.2428 22.0697 11.2447 22.0705C11.2483 22.0721 11.2529 22.0742 11.2587 22.0768C11.2701 22.0818 11.2856 22.0886 11.3051 22.0969C11.3442 22.1134 11.3991 22.1359 11.4685 22.1623C11.6071 22.215 11.8043 22.2837 12.0484 22.3519C12.5347 22.4878 13.2177 22.625 14 22.625V21.375ZM11.1577 24.6734C10.555 25.1475 10.3055 25.7858 10.2533 26.4098C10.2025 27.0167 10.3345 27.6247 10.4997 28.1216L11.6859 27.7272C11.5485 27.314 11.4677 26.8871 11.4989 26.5141C11.5287 26.1582 11.6562 25.8717 11.9306 25.6558L11.1577 24.6734ZM7.375 23.4286C7.375 25.5528 7.67847 26.9792 8.20193 27.9301C8.74743 28.9211 9.50732 29.3513 10.2621 29.5194L10.5339 28.2993C10.0899 28.2004 9.65079 27.9701 9.29698 27.3273C8.92114 26.6446 8.625 25.4641 8.625 23.4286H7.375ZM17 7.375C11.6843 7.375 7.375 11.6843 7.375 17H8.625C8.625 12.3746 12.3746 8.625 17 8.625V7.375ZM15.8757 21.1875C15.2701 21.3104 14.6429 21.375 14 21.375V22.625C14.7269 22.625 15.4374 22.5519 16.1243 22.4125L15.8757 21.1875ZM10.4997 28.1216C10.5088 28.1488 10.5123 28.1825 10.5073 28.2189C10.5021 28.2561 10.4894 28.2856 10.4777 28.3034C10.466 28.3212 10.4631 28.3163 10.4804 28.3082C10.4894 28.304 10.5008 28.3005 10.5131 28.2991C10.519 28.2985 10.524 28.2984 10.5279 28.2986C10.5298 28.2988 10.5313 28.2989 10.5324 28.2991C10.5334 28.2992 10.5339 28.2993 10.5339 28.2993L10.2621 29.5194C10.8238 29.6445 11.2807 29.3574 11.5222 28.9901C11.7538 28.6379 11.8313 28.1647 11.6859 27.7272L10.4997 28.1216ZM27.625 12.9999V27.25H28.875V12.9999H27.625ZM28.25 26.625H18V27.875H28.25V26.625ZM19.4858 19.6033C18.9471 19.9927 18.3656 20.3261 17.7498 20.5952L18.2502 21.7406C18.9487 21.4355 19.6078 21.0575 20.218 20.6164L19.4858 19.6033ZM18.2517 21.74C18.9432 21.4357 19.6034 21.0607 20.218 20.6164L19.4858 19.6033C18.9448 19.9943 18.3617 20.3259 17.7483 20.5959L18.2517 21.74ZM20.218 20.6164C22.8866 18.6874 24.625 15.5467 24.625 12H23.375C23.375 15.1286 21.8432 17.8993 19.4858 19.6033L20.218 20.6164ZM13.375 22C13.375 22.4863 13.1503 22.9131 12.7334 23.3565C12.3006 23.8167 11.7482 24.2088 11.1577 24.6734L11.9306 25.6558C12.451 25.2464 13.1266 24.763 13.644 24.2128C14.1772 23.6458 14.625 22.9272 14.625 22H13.375ZM22 8.625C22.7594 8.625 23.375 9.24062 23.375 10H24.625C24.625 8.55027 23.4498 7.375 22 7.375V8.625Z" fill="#3F71AF"></path>
    <path d="M12.5 17.5h.1" stroke="#3F71AF" stroke-linecap="round" stroke-width="2"></path>
    <path d="M28.0265 18.9C24.0078 18.9 20.75 19.9859 20.75 21.3255V26.985V32.6445C20.75 33.9866 23.984 35.07 28.0265 35.07C32.069 35.07 35.303 33.9866 35.303 32.6445V26.985V21.3255C35.303 19.9859 32.0452 18.9 28.0265 18.9Z" fill="var(--geist-background)"></path><path d="M35.303 21.3255C35.303 22.6651 32.0452 23.751 28.0265 23.751C24.0078 23.751 20.75 22.6651 20.75 21.3255M35.303 21.3255C35.303 19.9859 32.0452 18.9 28.0265 18.9C24.0078 18.9 20.75 19.9859 20.75 21.3255M35.303 21.3255V32.6445M35.303 21.3255V26.985M20.75 21.3255V32.6445M20.75 21.3255V26.985M35.303 26.985C35.303 28.3271 32.069 29.4105 28.0265 29.4105C23.984 29.4105 20.75 28.3271 20.75 26.985M35.303 26.985V32.6445M20.75 26.985V32.6445M20.75 32.6445C20.75 33.9866 23.984 35.07 28.0265 35.07C32.069 35.07 35.303 33.9866 35.303 32.6445" stroke="#3F71AF" stroke-linecap="round" stroke-linejoin="round" stroke-width="1.25"></path>


</svg>