<?xml version="1.0" encoding="UTF-8"?>
<svg id="_레이어_1" data-name="레이어 1" xmlns="http://www.w3.org/2000/svg" viewBox="0 0 162 144.3">
  <defs>
    <style>
      .cls-1 {
        fill: #61d9fa;
        stroke-width: 0px;
      }
    </style>
  </defs>
  <path class="cls-1" d="m3.5,62.67c2.76-3.73,6.38-6.48,10.28-8.89,5.94-3.68,12.36-6.33,19.02-8.39.86-.27,1.22-.53.98-1.6-1.32-6.08-2.23-12.21-2.2-18.72-.05-4.87.52-9.91,2.35-14.74C36.55,3.4,41.91-.31,49.04.02c3.99.18,7.72,1.44,11.32,3.1,7.45,3.44,13.86,8.37,19.88,13.86.61.55.94.64,1.59.05,3.18-2.94,6.52-5.68,10.1-8.13,5.91-4.03,12.08-7.43,19.3-8.55,7.02-1.09,12.95,1.81,16.14,8.14,2.41,4.77,3.09,9.92,3.22,15.16.16,6.66-.71,13.24-2.15,19.74-.36,1.62-.37,1.62,1.19,2.12,5.94,1.9,11.68,4.25,17.08,7.38,4.57,2.66,8.79,5.75,11.99,10.06,4.35,5.86,4.41,12.33.17,18.24-2.4,3.35-5.47,5.97-8.85,8.24-6.43,4.33-13.51,7.26-20.87,9.57-.84.26-1.19.56-.97,1.53,1.78,7.94,2.77,15.96,2,24.12-.41,4.37-1.32,8.63-3.61,12.45-2.77,4.62-6.78,7.12-12.27,7.2-4.98.07-9.51-1.49-13.87-3.61-6.97-3.4-13.04-8.1-18.73-13.32-.56-.51-.86-.73-1.56-.09-3.23,2.99-6.63,5.8-10.28,8.27-6.09,4.11-12.42,7.59-19.91,8.55-6.09.77-11.64-1.75-14.74-7.04-2.69-4.6-3.53-9.68-3.79-14.88-.37-7.33.61-14.55,2.19-21.7.2-.9-.03-1.21-.86-1.47-5.24-1.63-10.34-3.64-15.19-6.24-4.93-2.64-9.52-5.72-13.23-10.01-5.43-6.28-5.76-13.4-.81-20.09ZM75.31,22.42c-6.64-5.96-13.58-11.46-22.25-14.25-1.54-.5-3.14-.77-4.77-.78-3.38-.11-5.62,1.49-7.03,4.49-1.41,2.98-1.97,6.16-2.22,9.4-.53,7.02.42,13.92,1.83,20.78.14.69.37.91,1.08.73,6.37-1.59,12.84-2.55,19.35-3.34.55-.07.91-.26,1.23-.7,3.94-5.35,8.14-10.49,12.73-15.3.34-.36.51-.62.05-1.03Zm43.53,71.09c-1.18-4.07-2.58-8.07-4.25-12.3-2.8,5.4-5.73,10.43-8.9,15.32.06.09.13.18.19.26,2.57-.45,5.15-.88,7.72-1.37,1.55-.3,3.08-.72,4.63-1.02.58-.11.8-.26.62-.89Zm-1.12-43.7c-3.95-.85-7.91-1.63-12.14-2.24,3.23,5.12,6.19,10.22,8.94,15.6.69-1.17,1.03-2.28,1.41-3.35.97-2.76,1.85-5.56,2.85-8.31.42-1.16.04-1.47-1.05-1.7Zm-10.05,28.61c.92-1.78,1.78-3.6,2.69-5.38.27-.52.3-.96.03-1.51-4.06-8.48-8.7-16.61-14.01-24.37-.33-.49-.68-.75-1.3-.79-4.7-.28-9.4-.62-14.02-.48-4.81-.13-9.51.19-14.21.47-.52.03-.85.22-1.14.64-5.32,7.79-10.12,15.89-14.13,24.43-.23.49-.28.9-.03,1.41,4.07,8.47,8.66,16.63,14,24.38.36.52.73.79,1.39.84,6.67.52,13.34.6,20.02.44,2.74-.07,5.47-.32,8.2-.43.62-.03.87-.39,1.16-.81,4.18-6.04,7.97-12.31,11.33-18.84Zm-60.23,2.63c-1.46,3.59-2.67,6.99-3.76,10.44-.03.11-.04.23-.08.34-.7,2.4-.71,2.44,1.69,2.93,3.28.67,6.57,1.27,9.86,1.88.33.06.68.04,1.23.06-3.24-5.1-6.18-10.18-8.96-15.65Zm-.26-18.47c.05.13.16.25.32.46,2.73-5.32,5.71-10.38,8.99-15.5-4.44.66-8.63,1.43-12.78,2.42-.62.15-.7.34-.53.92,1.18,3.95,2.54,7.84,4,11.69Zm34.42-33.99c-.28-.32-.49-.57-.9-.13-2.96,3.19-5.89,6.42-8.51,9.91-.04.05-.01.14-.02.26,5.92-.26,11.83-.25,17.99-.02-1.24-1.53-2.33-2.96-3.5-4.31-1.66-1.93-3.38-3.81-5.06-5.71Zm39.75-15.54c-1.05-2.69-2.58-5-5.76-5.4-2.16-.27-4.3-.02-6.4.61-5.84,1.74-10.84,4.99-15.67,8.57-2.29,1.71-4.43,3.6-6.6,5.47-.58.5-.5.77-.02,1.27,4.51,4.68,8.61,9.7,12.42,14.96.4.56.84.86,1.58.95,6.47.76,12.91,1.75,19.23,3.34.58.15.88.06,1.03-.65,1.19-5.56,2.03-11.15,2.07-16.96-.05-4.07-.34-8.22-1.89-12.16Zm4.51,78.19c.2.69.38,1.03,1.24.75,6.17-2.04,12.18-4.44,17.68-7.96,3.13-2.01,6.1-4.21,8.26-7.32.97-1.39,1.59-2.9,1.7-4.64-.21-2.53-1.55-4.54-3.23-6.34-3.42-3.67-7.65-6.21-12.09-8.44-3.9-1.96-7.99-3.47-12.12-4.86-.84-.28-1.09-.08-1.33.73-1.75,5.88-3.84,11.65-6.34,17.25-.56,1.25-.64,2.26-.06,3.57,2.49,5.61,4.61,11.36,6.29,17.26Zm-39.06,30.84c6.31,5.63,12.9,10.83,20.98,13.75,1.75.63,3.56,1.03,5.41,1.16,3.39.23,5.9-1.14,7.42-4.24,1.17-2.39,1.74-4.93,2.13-7.54.3-2.07.29-4.16.3-6.8.08-5.07-.81-10.58-1.91-16.08-.17-.83-.52-.93-1.25-.75-6.22,1.52-12.53,2.57-18.9,3.24-.62.06-1.13.24-1.56.82-3.9,5.33-8.11,10.41-12.64,15.23-.45.48-.48.76.02,1.2Zm-6.45-6.43c.34.35.58.67,1.09.12,2.93-3.18,5.81-6.4,8.66-10.08-6.14.31-12.03.41-18.01,0,.11.83.73,1.24,1.13,1.75,2.26,2.84,4.61,5.61,7.14,8.21Zm-39.68,15.76c1.6,4.08,3.78,5.54,8.15,5.37,2.02-.08,3.95-.63,5.84-1.33,5.76-2.13,10.76-5.52,15.52-9.31,1.66-1.32,3.22-2.77,4.86-4.12.55-.46.54-.74.04-1.26-4.53-4.76-8.7-9.83-12.55-15.15-.38-.53-.82-.74-1.44-.81-6.33-.64-12.6-1.68-18.78-3.21-.92-.23-1.37-.25-1.6.91-1.07,5.42-1.93,10.85-1.94,15.87,0,4.79.32,9.01,1.89,13.03Zm-31.02-53.78c2.53,3.16,5.81,5.41,9.24,7.44,5.04,2.98,10.47,5.08,16.02,6.92.75.25.92-.05,1.09-.64,1.88-6.37,4.24-12.57,6.92-18.65.19-.43.17-.78-.01-1.2-2.65-6.01-4.94-12.15-6.8-18.45-.16-.55-.24-.99-1.06-.72-7.48,2.44-14.71,5.41-21.04,10.22-2.23,1.69-4.23,3.61-5.67,6.04-.64,1.08-1,2.25-1.1,3.49.12,2.15,1.1,3.92,2.4,5.54Z"/>
  <path class="cls-1" d="m81.05,87.23c8.42-.01,15.05-6.66,15.05-15.07,0-8.32-6.8-15.11-15.1-15.1-8.34.01-15.09,6.86-15.06,15.27.03,8.29,6.75,14.92,15.12,14.91Z"/>
</svg>