<?xml version="1.0" encoding="UTF-8"?>
<svg id="_레이어_1" data-name="레이어 1" xmlns="http://www.w3.org/2000/svg" viewBox="0 0 154.79 140.11">
  <defs>
    <style>
      .cls-1 {
        fill: #012632;
      }

      .cls-1, .cls-2, .cls-3, .cls-4, .cls-5, .cls-6 {
        stroke-width: 0px;
      }

      .cls-2 {
        fill: #022732;
      }

      .cls-3 {
        fill: #f4ca53;
      }

      .cls-4 {
        fill: #e6c151;
      }

      .cls-5 {
        fill: #032732;
      }

      .cls-6 {
        fill: #e73d4b;
      }
    </style>
  </defs>
  <path class="cls-1" d="m125.04,25.03c.57,4.95-.93,10.28-2.25,15.55-.66,2.63-.09,3.34,2.28,4.17,7.36,2.57,14.61,5.36,20.94,10.17,11.44,8.7,11.73,20.54.67,29.59-6.04,4.95-12.98,7.96-20.39,10.03-2.75.77-3.94,1.55-3.19,5.04,1.41,6.62,2.11,13.38,2,20.24-.28,16.7-12.08,24.34-27.24,17.42-6.74-3.08-12.58-7.46-17.6-12.85-1.94-2.08-3.03-2.08-5.02-.08-5.06,5.09-10.93,9.19-17.29,12.53-14.89,7.83-26.78,1.13-28.25-15.72-.65-7.39.35-14.6,2.24-21.65.77-2.88.02-3.77-2.49-4.66-7.66-2.72-15.3-5.57-21.73-10.77-9.99-8.06-10.3-19.65-.71-28.14,6.22-5.51,13.66-8.73,21.59-10.83,3.27-.87,4.21-1.97,3.37-5.79-1.61-7.37-2.7-14.84-1.63-22.62C32.57.37,45.1-3.42,58.14,2.89c6.17,2.99,11.73,6.98,16.27,12.13,2.07,2.35,3.57,2.2,5.68.22,4.86-4.57,10.3-8.41,16.1-11.68,15.29-8.6,28.58-.81,28.84,16.85.02,1.33,0,2.66,0,4.62Z"/>
  <path class="cls-6" d="m119.34,24.15c-.58,11.24-3.85,21.85-7.75,32.3-1.29,3.46-3.24,3.05-4.85.32-6.7-11.33-14.12-22.15-22.52-32.3-1.24-1.5-1.53-3.09.06-4.4,6.53-5.38,12.9-11.11,21.52-12.99,5.74-1.26,9.23.53,11.52,5.88,1.52,3.55,2.28,7.29,2.02,11.19Z"/>
  <path class="cls-6" d="m35.39,115.77c.6-11.05,3.69-21.53,7.56-31.81,1.34-3.56,3.28-3.43,5.11-.28,6.53,11.23,13.9,21.87,22.22,31.86,1.16,1.39,1.93,3.02.3,4.41-6.46,5.48-12.85,11.15-21.43,13.15-5.95,1.38-9.51-.5-11.82-6.1-1.47-3.57-2.18-7.31-1.95-11.22Z"/>
  <path class="cls-6" d="m119.49,117.19c-.23,1.94-.33,4.1-.77,6.19-2.01,9.58-7.21,12.65-16.23,8.95-12.76-5.22-21.39-15.5-29.72-25.88-2.41-3,.16-4.44,3.24-4.37,9.82.22,19.56-.64,29.3-1.84,11.61-1.43,11.64-1.31,13.44,10.28.33,2.12.48,4.28.74,6.65Z"/>
  <path class="cls-6" d="m36.4,23.21c0-.33,0-.66,0-1,.12-5.52-.07-11.47,5.4-14.64,5.76-3.34,11.22-.39,16.32,2.51,9.87,5.61,17.03,14.16,24.18,22.67,2.45,2.92,1.6,4.57-2.57,4.89-8.26.65-16.59.19-24.82,1.47-3.6.56-7.3.71-10.78,1.66-4.47,1.22-6.19-.64-6.62-4.69-.46-4.28-.89-8.57-1.33-12.86.08,0,.15-.02.23-.02Z"/>
  <path class="cls-6" d="m47.53,46.98c3.77-.44,5.28.8,3.2,4.44-6.35,11.14-11.49,22.83-16.02,34.8-.72,1.89-1.68,3.23-4.08,2.37-7.21-2.6-14.33-5.33-20.13-10.6-5.77-5.25-5.88-10.67-.4-16.35,3.54-3.67,7.83-6.14,12.47-8.04,8.03-3.28,16.38-5.36,24.95-6.63Z"/>
  <path class="cls-6" d="m148.53,69.78c-.19,4.83-3.36,7.81-6.8,10.48-6.58,5.1-14.37,7.54-22.27,9.62-3.68.97-7.46,1.61-11.23,2.23-1.63.27-3.56,1.9-4.92-.42-1.16-1.98.4-3.52,1.26-5.01,3.84-6.63,7.13-13.53,10.17-20.54,1.78-4.11,3.32-8.33,4.88-12.53,1.06-2.87,2.56-3.79,5.66-2.45,6.7,2.91,13.67,5.29,19.16,10.4,2.37,2.21,4.23,4.71,4.08,8.22Z"/>
  <path class="cls-3" d="m78.84,45c8.86-2.56,13.84,3.06,19.07,11.6,5.99,9.77,5.62,17.14-.15,26.81-5.03,8.42-10.26,11.96-20.1,11.51-17.2-.79-13.66.39-22.54-13.1-5.64-8.56-6.33-15.96.2-23.87.1-.13.16-.29.25-.43,8.06-14.02,5.4-12.42,23.27-12.51Z"/>
  <path class="cls-2" d="m76.97,50.06c4.24.37,9.14-1.44,11.93,2.43,3.83,5.33,8.92,10.82,8.87,17.43-.05,6.4-4.86,11.9-8.78,16.97-3.51,4.54-9.22,2.7-14.08,2.91-3.66.16-7.79.57-10.17-2.73-3.86-5.33-9-10.78-8.88-17.41.12-6.58,5-12.16,9.05-17.35,3.08-3.94,8.12-1.68,12.06-2.26Z"/>
  <path class="cls-3" d="m76.7,55.83c8.17,0,14.65,6.11,14.72,13.91.08,7.52-6.82,14.3-14.55,14.31-7.63,0-14.7-6.76-14.76-14.13-.06-7.33,6.93-14.09,14.59-14.09Z"/>
  <path class="cls-5" d="m76.92,78.46c-5.03.05-8.87-3.71-8.85-8.64.02-4.91,3.98-8.85,8.85-8.79,4.64.05,8.42,3.83,8.55,8.55.14,5.05-3.5,8.84-8.54,8.89Z"/>
  <path class="cls-4" d="m76.54,66.44c2.17.12,3.55,1.31,3.54,3.33-.01,1.92-1.1,3.46-3.35,3.43-1.94-.03-3.02-1.15-3.19-3.03-.2-2.18,1.06-3.28,3.01-3.73Z"/>
</svg>