<?xml version="1.0" encoding="UTF-8"?>
<svg id="_레이어_1" data-name="레이어 1" xmlns="http://www.w3.org/2000/svg" viewBox="0 0 170 127.46">
  <defs>
    <style>
      .cls-1 {
        fill: #cc6799;
        stroke-width: 0px;
      }
    </style>
  </defs>
  <path class="cls-1" d="m156.69,74.96c-7.79-2.69-15.58-2.26-23.15.78-2.21.89-3.01.47-4.04-1.54-2.61-5.1-3.13-10.27-1.42-15.71,1.45-4.62.46-5.67-4.37-5.38-3.68.23-5.51,1.79-6.38,5.51-1.78,7.65-6.48,13.93-10.41,21.05-3.29-5.85-3.47-11.33-1.48-17.04.37-1.06,1.36-2.21.24-3.46-1.89-2.11-9.5-.78-10.36,1.88-3.93,12.15-9.84,23.45-15.12,35.01-.45.99-.64,2.38-2.14,2.8-.34-1.85-.1-3.5.31-5.13,1.25-5.03,2.44-10.08,3.79-15.08.65-2.4-.17-4.2-2.51-4-3.09.26-2.6-1.34-2.63-3.26-.11-5.85-3.49-8.13-9.01-6.15-2.8,1-5.49,2.5-7.3,4.77-4.02,5.06-9.66,7.62-15.06,10.59-5.83,3.2-5.84,3.16-10.84-1.07-5.42-4.59-11.48-8.41-16.37-13.63-6.55-6.98-7.41-14.61-2.57-22.9,1.43-2.45,3.12-4.71,5.2-6.64,14.12-13.17,30.62-21.75,49.63-25.29,6.26-1.16,12.59-1.12,18.76.87,7.42,2.4,10.06,7.66,7.57,15.06-.91,2.69-2.22,5.18-3.95,7.43-7.94,10.28-18.74,15.67-31.26,17.83-7.51,1.3-14.92,1.3-20.87-4.72-.27-.27-.84-.49-1.17-.4-.64.18-.67.88-.56,1.41.3,1.47,1.06,2.71,2.08,3.81,3.39,3.64,7.63,5.53,12.52,6.01,7.27.72,14.42-.02,21.43-2.05,13.87-4.01,24.4-12.02,29.97-25.64,5.35-13.09-.05-24.27-13.48-28.48C84.93.07,77.95-.5,70.96.43,49.53,3.29,31.07,12.73,14.75,26.62c-4.4,3.74-8.08,8.18-10.97,13.23-5.64,9.88-5.04,17.01,2.2,25.77,2.31,2.8,4.89,5.33,7.79,7.5,4.87,3.65,9.87,7.13,14.8,10.71,1.48,1.08,2.9,2.24,4.6,3.56-5.93,3.21-11.4,6.13-16.31,9.93-4.12,3.19-8.04,6.59-10.08,11.61-4.56,11.25,1.62,19.61,13.6,18.41.45-.04.89-.13,1.34-.2,16.74-2.86,27.17-20.39,21.83-36.71-.3-.9-1.13-1.85.22-2.62,2.55-1.47,5.1-2.95,8.22-4.76-.46,1.87-.75,2.94-.99,4.03-1.52,6.76-1.63,13.42,1.55,19.82,1.29,2.59,2.75,4.91,6.16,5.01,3.37.11,5.16-1.9,6.53-4.51,1.61-3.06,3.09-6.19,4.96-9.97-.07,3.31-.25,5.88.48,8.37,1.19,4.04,4.27,5.01,7.45,2.34,1.57-1.32,2.79-2.95,3.77-4.74,3.14-5.73,6.32-11.43,8.96-17.41,1.81-4.09,3.65-8.17,5.73-12.81,1.02,4.22,1.68,7.96,3.73,11.1,1.54,2.36.96,4.03-.66,5.94-3.22,3.78-6.42,7.58-9.42,11.53-2.03,2.67-1.04,4.98,2.03,5.42,12.33,1.79,21.42-8.57,17.88-20.38-.29-.96-.83-1.81-.1-2.85,3.4-4.88,6.24-10.09,9.46-16.04.83,3.67,1.23,6.68,2.74,9.18,1.72,2.87,1.5,4.68-1.12,7.03-3.73,3.33-6.57,7.49-6.8,12.81-.15,3.65,2.07,5.5,5.62,4.62,2.4-.6,4.71-1.56,6.82-2.9,6.64-4.21,8.38-8.24,6.56-15.93-.4-1.69.36-1.91,1.49-2.29,5.62-1.87,11.35-1.83,17.07-.77,4.87.9,9.3,2.83,12.32,7.05,3.62,5.05,2.88,9.81-2.04,13.56-.66.5-1.76.72-1.49,1.95,4.73.17,9.09-4.48,9.31-9.93.3-7.37-5.07-14.45-13.29-17.29ZM22.52,117.56c-4.69,1.18-7.03-.82-6.36-5.59.55-3.95,2.68-7.12,5.51-9.82,3.85-3.67,8.28-6.54,12.73-9.42,2.48-1.61,3.55-1.41,3.63,1.66.02.9.16,1.79.19,2.2-.01,9.79-6.9,18.77-15.71,20.98Zm49.38-42.15c-2.11,7.95-5.12,15.58-8.56,23.04-.57,1.23-1.14,3.28-2.8,2.88-1.45-.34-1.46-2.36-1.67-3.79-.16-1.11-.15-2.24-.18-2.86.11-7.64,2.7-13.89,6.86-19.55.66-.89,1.51-1.7,2.41-2.34,1.15-.81,2.46-2.21,3.88-1.17,1.27.93.39,2.53.06,3.78Zm24.29,25.96c2.49-2.9,4.98-5.8,8-9.32-.79,5.34-3.97,7.67-8,9.32Zm25.53-5.73c-.48.19-.99.7-1.5.15-.44-.48-.19-1.06-.01-1.58,1.22-3.65,3.01-6.92,6.1-9.46,1.59,4.45-.45,9.19-4.59,10.89Z"/>
</svg>