<?xml version="1.0" encoding="UTF-8"?>
<svg id="_레이어_1" data-name="레이어 1" xmlns="http://www.w3.org/2000/svg" viewBox="0 0 160 90.08">
  <defs>
    <style>
      .cls-1 {
        fill: #6e7fd0;
      }

      .cls-1, .cls-2 {
        stroke-width: 0px;
      }

      .cls-2 {
        fill: #6b82f7;
      }
    </style>
  </defs>
  <path class="cls-2" d="m40.55,28.74c.03-1.93.8-3.4,1.4-4.91,3.55-8.94,9.32-15.92,18.22-19.9C69.03-.03,78.35-.64,87.88.53c7.24.89,13.84,3.42,19.82,7.57,3.88,2.7,7.26,6,10.73,9.19,3.29,3.02,6.53,6.22,10.78,7.81,10.21,3.83,19.35,1.87,27.31-5.55,1.1-1.03,2.12-2.15,3.42-3.48.28,2.42-.82,4.08-1.5,5.75-3.26,8.01-8.46,14.41-16.21,18.49-5.57,2.93-11.62,4.23-17.83,4.6-7.39.43-14.69-.18-21.71-2.84-5.14-1.94-9.74-4.76-13.93-8.3-3.97-3.37-7.61-7.1-11.67-10.38-5.43-4.38-11.58-5.77-18.38-5.03-6.42.7-11.44,3.98-15.87,8.4-.64.64-1.15,1.42-2.31,1.99Z"/>
  <path class="cls-1" d="m.21,73.85c-.58-1.57.16-2.63.54-3.65,2.92-7.8,7.33-14.52,14.54-19.04,4.83-3.03,10.13-4.74,15.8-5.57,7.26-1.06,14.42-.81,21.54.85,6.1,1.42,11.53,4.25,16.52,8,4.08,3.06,7.63,6.72,11.35,10.17,6.2,5.76,13.35,8.16,21.73,6.92,5.49-.82,9.95-3.57,13.94-7.26,1.06-.98,2.09-2.01,3.25-3.13.55,1.7-.37,3.03-.85,4.27-3.77,9.7-9.97,17.23-19.79,21.3-7.28,3.01-14.92,3.64-22.71,3.26-12.42-.61-22.69-5.83-31.5-14.35-3.87-3.74-7.56-7.8-12.55-10.07-8.36-3.79-16.5-3.2-24.3,1.76-2.75,1.75-4.96,4.11-7.49,6.53Z"/>
  <path class="cls-2" d="m41.34,45.52c4.11.87,8.8.5,13.1,2.08,4.2,1.55,8.5,3.11,12.08,5.92,1.55,1.21,3.37,2.23,4.31,4.14.17.35.57.72.94.83,2.54.77,3.69,3.33,5.72,4.52,2.24,1.32,3.26,4.03,6.01,4.67.84.19,1.46,1.25,2.22,1.87,2.65,2.14,5.96,2.43,9.1,2.9,3.51.52,7.19.34,10.55-.52,2.41-.61,4.9-2.02,6.93-3.77,1.02-.88,2.42-.82,3.41-1.7.33-.29.68.09.87.42.25.43.49.86.11,1.35-1.76,2.23-3.01,4.8-4.66,7.12-1.25,1.75-2.89,3-4.16,4.64-1.39,1.8-3.6,2.48-5.28,3.89-3.41,2.85-7.73,3.34-11.82,4.41-4.15,1.08-8.36,1.3-12.64.87-2.97-.29-5.96-.23-8.95-.69-3.78-.58-7.03-2.38-10.39-3.9-2.52-1.14-4.99-2.46-7.27-4.02-1.59-1.09-3.56-1.92-4.28-4.01-.18-.52-.66-.68-1.13-.85-.59-.21-1.18-.52-1.48-1.05-2.03-3.65-6.03-4.98-8.93-7.61-2.79-2.53-6.32-3.67-9.95-4.21-6.41-.96-12.55-.16-17.93,3.83-1.25.92-2.91.94-4.06,2.04-.22.21-.6.09-.85-.12-.46-.39-.33-.86-.16-1.34.8-2.27,2.08-4.29,3.5-6.19,1.46-1.94,3.09-3.75,4.69-5.58,1.01-1.16,2.27-1.99,3.58-2.82,2.34-1.47,4.69-2.91,7.19-4.12.71-.34,1.43-.23,2.13-.46,5.55-1.82,11.34-1.97,17.47-2.53Z"/>
</svg>