<?xml version="1.0" encoding="UTF-8"?>
<svg id="_레이어_1" data-name="레이어 1" xmlns="http://www.w3.org/2000/svg" viewBox="0 0 178 167.53">
  <defs>
    <style>
      .cls-1 {
        fill: black;
      }

      .cls-2, .cls-3, .cls-4 {
        stroke-width: 0px;
        fill:white;
      }

    </style>
  </defs>
  <path class="cls-2" d="m.38,156.21V12.57C1.82,7.75,3.22,2.91,8.21.38h161.95c5.29,2.74,6.69,7.82,7.84,13.06v142.77c-1.52,4.27-2.66,8.77-6.97,11.32H7.34c-4.31-2.55-5.45-7.05-6.97-11.32Z"/>
  <path class="cls-1" d="m92.84,109.39c8.67-11.12,16.55-22.19,20.58-35.43,3.49-11.47,2.25-14.79-7.32-21.92-.7-.52-1.38-1.05-2.07-1.58,4.62-6.85,12.73-10.08,20.46-8.19,4.88,1.19,8.27,5.4,8.54,10.82.32,6.54-1.71,12.56-4.37,18.41-7.55,16.65-18.85,30.85-29.75,45.29-7.78,10.31-7.87,10.17-21.13,10.59-2.49.08-3.05-.71-3.45-3.04-3.64-21.11-7.54-42.17-11.14-63.28-.61-3.6-1.66-5.39-5.64-4.87-2.85.37-5.8.14-8.69.05-1.28-.04-3.38.69-3.2-1.65.16-2.07-1.58-5.05,1.63-6.04,8.01-2.46,15.94-5.36,24.31-6.4,6.89-.86,9.54,1.32,10.72,8.15,3.26,18.82,6.52,37.65,9.79,56.47.12.71.38,1.39.73,2.62Z"/>
</svg>